<?xml version="1.0" encoding="UTF-8"?>
<!DOCTYPE svg PUBLIC "-//W3C//DTD SVG 1.1//EN" "http://www.w3.org/Graphics/SVG/1.1/DTD/svg11.dtd">
<svg xmlns="http://www.w3.org/2000/svg" version="1.1" width="512px" height="512px" style="shape-rendering:geometricPrecision; text-rendering:geometricPrecision; image-rendering:optimizeQuality; fill-rule:evenodd; clip-rule:evenodd" xmlns:xlink="http://www.w3.org/1999/xlink">
<g><path style="opacity:0.989" fill="#2d79bd" d="M 398.5,1.5 C 423.173,1.02453 438.34,12.6912 444,36.5C 444.5,46.4944 444.666,56.4944 444.5,66.5C 455.172,66.3335 465.839,66.5002 476.5,67C 500.655,74.114 511.155,90.2806 508,115.5C 503.074,133.758 491.241,144.258 472.5,147C 463.173,147.5 453.839,147.666 444.5,147.5C 444.666,157.172 444.5,166.839 444,176.5C 439.652,198.519 426.318,210.186 404,211.5C 382.542,210.378 369.209,199.378 364,178.5C 363.5,168.172 363.334,157.839 363.5,147.5C 353.828,147.666 344.161,147.5 334.5,147C 307.481,140.802 295.981,123.969 300,96.5C 304.71,80.4554 315.21,70.6221 331.5,67C 342.161,66.5002 352.828,66.3335 363.5,66.5C 363.333,55.8281 363.5,45.1615 364,34.5C 368.567,16.0962 380.067,5.09624 398.5,1.5 Z"/></g>
<g><path style="opacity:0.994" fill="#3b4551" d="M 185.5,65.5 C 206.659,64.6542 221.159,73.9875 229,93.5C 277.471,213.247 326.138,332.914 375,452.5C 382.624,477.412 374.79,495.579 351.5,507C 325.777,513.056 307.944,503.889 298,479.5C 286.963,451.928 275.796,424.428 264.5,397C 214.83,396.167 165.163,396.333 115.5,397.5C 102.81,429.876 89.3097,461.876 75,493.5C 57.8654,511.594 38.6987,514.094 17.5,501C 2.10511,486.913 -1.72822,470.08 6,450.5C 55.2765,330.28 104.276,209.947 153,89.5C 159.766,75.8891 170.599,67.8891 185.5,65.5 Z M 189.5,214.5 C 203.772,247.795 217.772,281.295 231.5,315C 204.169,315.5 176.835,315.667 149.5,315.5C 162.55,281.732 175.883,248.065 189.5,214.5 Z"/></g>
</svg>
