<?xml version="1.0" encoding="UTF-8"?>
<!DOCTYPE svg PUBLIC "-//W3C//DTD SVG 1.1//EN" "http://www.w3.org/Graphics/SVG/1.1/DTD/svg11.dtd">
<svg xmlns="http://www.w3.org/2000/svg" version="1.1" width="512px" height="512px" style="shape-rendering:geometricPrecision; text-rendering:geometricPrecision; image-rendering:optimizeQuality; fill-rule:evenodd; clip-rule:evenodd" xmlns:xlink="http://www.w3.org/1999/xlink">
<g><path style="opacity:0.994" fill="#3b4551" d="M 185.5,33.5 C 206.659,32.6542 221.159,41.9875 229,61.5C 277.471,181.247 326.138,300.914 375,420.5C 382.643,445.377 374.81,463.544 351.5,475C 329.415,480.865 312.582,474.032 301,454.5C 288.829,424.65 276.662,394.816 264.5,365C 214.83,364.167 165.163,364.333 115.5,365.5C 102.81,397.876 89.3097,429.876 75,461.5C 57.8782,479.59 38.7115,482.09 17.5,469C 2.10511,454.913 -1.72822,438.08 6,418.5C 55.2765,298.28 104.276,177.947 153,57.5C 159.766,43.8891 170.599,35.8891 185.5,33.5 Z M 189.5,182.5 C 203.772,215.795 217.772,249.295 231.5,283C 204.169,283.5 176.835,283.667 149.5,283.5C 162.55,249.732 175.883,216.065 189.5,182.5 Z"/></g>
<g><path style="opacity:0.986" fill="#2d79be" d="M 331.5,34.5 C 381.213,34.0186 430.88,34.5186 480.5,36C 495.171,40.6716 504.337,50.505 508,65.5C 511.42,86.8284 503.586,102.328 484.5,112C 480.653,113.616 476.653,114.616 472.5,115C 426.5,115.667 380.5,115.667 334.5,115C 312.689,110.521 300.689,97.1881 298.5,75C 299.957,53.5266 310.957,40.0266 331.5,34.5 Z"/></g>
</svg>
